# xmcd
#
# Track frame offsets:
#	182
#	12732
#	27115
#	42512
#	55997
#	72060
#	82562
#	100625
#	117892
#	132680
#	154677
#	164092
#	178995
#	194375
#	206472
#	222395
#	235330
#	250195
#	262255
#	273960
#	287675
#	302457
#
# Disc length: 4264
#
# Revision: 4
# Processed by: cddbd v1.5.1PL0 Copyright (c) Steve Scherf et al.
# Submitted via: audiograbber 1.80.04
# Normalized: r3:DSETVAR1
#
DISCID=4210a616
DTITLE=Various Artist - The Very Best Of Country Volume 3
DYEAR=1995
DGENRE=Country
TTITLE0=Don Williams - Some Broken Hearts Never Mend
TTITLE1=Bellamy Brothers - If I Said You Had A Beautiful Body
TTITLE2=Juice Newton - Queen Of Hearts
TTITLE3=Mac Davis - Baby Don't Get Hooked On Me
TTITLE4=Kenny Rodgers - Lucille
TTITLE5=Dolly Parton - Love Is Like A Butterfly
TTITLE6=Bobby Goldsboro - Honey
TTITLE7=Dr. Hook - Sylvia's Mother
TTITLE8=Olivia Newton John - Country Roads ( Take Me Home )
TTITLE9=Geraldine - I'm A Woman
TTITLE10=Glen Campbell and Bobby Gentry - Let It Be Me
TTITLE11=Brooks and Dunn - Boot Scootin' Boogie
TTITLE12=Three Dog Night - Shambala
TTITLE13=Tammy Wynette - Stand By Your Man
TTITLE14=Smokie - For A Few Dollars More
TTITLE15=Jim Reeves - Distant Drums
TTITLE16=Roger Whittaker - I Don't Believe In If Anymore
TTITLE17=Charlie Rich - The Most Beautiful Girl In The World
TTITLE18=Johnny Cash - Folsom Prison Blues
TTITLE19=Leroy Parnell - Love Without Mercy
TTITLE20=Roseanne Cash - Seven Year Ache
TTITLE21=Exile - You Thrill Me
EXTD=
EXTT0=Williams, Don
EXTT1=Bellamy Brothers
EXTT2=Newton, Juice
EXTT3=Davis, Mac
EXTT4=Rogers, Kenny
EXTT5=Parton, Dolly
EXTT6=Goldsboro, Bobby
EXTT7=Dr. Hook
EXTT8=Newton-John, Olivia
EXTT9=Geraldine
EXTT10=Campbell, Glen\nGentry, Bobby
EXTT11=Brooks and Dunn
EXTT12=Three Dog Night
EXTT13=Wynette, Tammy
EXTT14=Smokie
EXTT15=Reeves, Jim
EXTT16=Whittaker, Roger
EXTT17=Rich, Charlie
EXTT18=Cash, Johnny
EXTT19=Parnell, Leroy
EXTT20=Cash, Roseanne
EXTT21=Exile
PLAYORDER=
